HIERARCHY
ROOT joint_Root
{
	OFFSET 0.0 0.0 0.0
	CHANNELS 6 Xposition Yposition Zposition Zrotation Xrotation Yrotation 
	JOINT Hips
	{
		OFFSET 4.5925 91.4895 -427.239
		CHANNELS 6 Xposition Yposition Zposition Zrotation Xrotation Yrotation 
		JOINT Spine
		{
			OFFSET 15.7357 0.0 0.0
			CHANNELS 6 Xposition Yposition Zposition Zrotation Xrotation Yrotation 
			JOINT Chest
			{
				OFFSET 8.98455 -0.406207 0.0
				CHANNELS 6 Xposition Yposition Zposition Zrotation Xrotation Yrotation 
				JOINT Neck
				{
					OFFSET 16.3773 0.0 0.0
					CHANNELS 6 Xposition Yposition Zposition Zrotation Xrotation Yrotation 
					JOINT Head
					{
						OFFSET 6.45672 0.0 0.0
						CHANNELS 6 Xposition Yposition Zposition Zrotation Xrotation Yrotation 
						End Site
						{
							OFFSET 0.0 0.0 0.0
						}
					}
				}
				JOINT Shoulder_L
				{
					OFFSET 12.9942 -0.242716 4.98039
					CHANNELS 6 Xposition Yposition Zposition Zrotation Xrotation Yrotation 
					JOINT UpperArm_L
					{
						OFFSET 5.34809 0.0 0.0
						CHANNELS 6 Xposition Yposition Zposition Zrotation Xrotation Yrotation 
						JOINT LowerArm_L
						{
							OFFSET 24.3286 1.87007e-05 0.0
							CHANNELS 6 Xposition Yposition Zposition Zrotation Xrotation Yrotation 
							JOINT Hand_L
							{
								OFFSET 22.2916 0.0 0.0
								CHANNELS 6 Xposition Yposition Zposition Zrotation Xrotation Yrotation 
								End Site
								{
									OFFSET 0.0 0.0 0.0
								}
							}
						}
					}
				}
				JOINT Shoulder_R
				{
					OFFSET 12.9945 -0.242716 -4.98039
					CHANNELS 6 Xposition Yposition Zposition Zrotation Xrotation Yrotation 
					JOINT UpperArm_R
					{
						OFFSET -5.34813 0.0 0.0
						CHANNELS 6 Xposition Yposition Zposition Zrotation Xrotation Yrotation 
						JOINT LowerArm_R
						{
							OFFSET -24.3289 0.000322201 0.0
							CHANNELS 6 Xposition Yposition Zposition Zrotation Xrotation Yrotation 
							JOINT Hand_R
							{
								OFFSET -22.2915 -0.000108084 0.0
								CHANNELS 6 Xposition Yposition Zposition Zrotation Xrotation Yrotation 
								End Site
								{
									OFFSET 0.0 0.0 0.0
								}
							}
						}
					}
				}
			}
		}
		JOINT UpperLeg_L
		{
			OFFSET -2.19248 -6.46944 0.0
			CHANNELS 6 Xposition Yposition Zposition Zrotation Xrotation Yrotation 
			JOINT LowerLeg_L
			{
				OFFSET 39.0811 0.0 -1.23785e-05
				CHANNELS 6 Xposition Yposition Zposition Zrotation Xrotation Yrotation 
				JOINT Foot_L
				{
					OFFSET 40.9854 0.0 -1.26872e-05
					CHANNELS 6 Xposition Yposition Zposition Zrotation Xrotation Yrotation 
					JOINT Toes_L
					{
						OFFSET 11.7543 0.0 0.0
						CHANNELS 6 Xposition Yposition Zposition Zrotation Xrotation Yrotation 
						End Site
						{
							OFFSET 0.0 0.0 0.0
						}
					}
				}
			}
		}
		JOINT UpperLeg_R
		{
			OFFSET -2.19251 6.46944 0.0
			CHANNELS 6 Xposition Yposition Zposition Zrotation Xrotation Yrotation 
			JOINT LowerLeg_R
			{
				OFFSET -39.0811 -0.00228153 -0.0401928
				CHANNELS 6 Xposition Yposition Zposition Zrotation Xrotation Yrotation 
				JOINT Foot_R
				{
					OFFSET -40.9854 0.0 0.0
					CHANNELS 6 Xposition Yposition Zposition Zrotation Xrotation Yrotation 
					JOINT Toes_R
					{
						OFFSET -11.7543 0.0 0.0
						CHANNELS 6 Xposition Yposition Zposition Zrotation Xrotation Yrotation 
						End Site
						{
							OFFSET 0.0 0.0 0.0
						}
					}
				}
			}
		}
	}
}
MOTION
Frames:	4
Frame Time:	0.0333333
0.000000 0.000000 0.000000 0.000000 0.000000 -0.000000 -1.792390 92.486300 2.448380 88.903100 0.833811 0.799015 15.735700 0.000005 -0.000001 75.291400 87.651800 -75.275200 8.984550 -0.406207 -0.000000 -3.223670 -1.193440 -0.001106 16.377300 -0.000001 -0.000001 2.646330 -2.716810 1.804610 6.456720 -0.000001 -0.000000 -2.714010 -2.172950 2.240440 12.994200 -0.242716 4.980390 -84.931500 -9.463820 -61.657300 5.348090 -0.000007 -0.000001 -41.952700 -64.112300 -75.675800 24.328600 0.000019 0.000005 3.981300 2.843800 -54.520400 22.291600 -0.000001 0.000005 14.742600 5.479310 -5.722270 12.994500 -0.242716 -4.980390 93.903800 -9.358860 -67.236000 -5.348130 -0.000001 -0.000004 -29.883900 -65.318700 -65.893600 -24.328900 0.000322 -0.000009 -8.259960 -6.754110 -50.984100 -22.291500 -0.000108 -0.000004 19.956900 5.578630 -10.137600 -2.192480 -6.469440 -0.000000 -174.723000 -12.229100 -2.601340 39.081100 -0.000007 -0.000012 -0.100497 0.292407 18.967300 40.985400 -0.000006 -0.000013 -0.811900 8.638650 -65.409000 11.754300 -0.000000 0.000003 -0.000272 -0.002395 -16.667100 -2.192510 6.469440 -0.000001 177.608000 26.984600 179.117000 -39.081100 -0.002282 -0.040193 0.006182 -0.008519 18.545500 -40.985400 0.000008 0.000006 6.730030 15.909300 -67.180500 -11.754300 -0.000006 -0.000006 -0.508857 -0.625026 -16.928400
0.000000 0.000000 0.000000 0.000000 0.000000 -0.000000 -1.794560 92.490600 2.227850 88.992500 0.941730 1.107810 15.735700 0.000005 -0.000001 77.188900 87.440300 -77.210500 8.984550 -0.406207 -0.000000 -2.774570 -1.132740 -0.070563 16.377300 -0.000001 -0.000001 2.250390 -2.749790 1.643540 6.456720 -0.000001 -0.000000 -2.989820 -2.444870 2.440620 12.994200 -0.242716 4.980390 -85.557200 -8.475960 -62.205000 5.348090 -0.000007 -0.000001 -38.296800 -60.800600 -70.034400 24.328600 0.000019 0.000005 3.406600 2.222520 -56.919900 22.291600 -0.000001 0.000005 14.914600 5.471710 -5.435300 12.994500 -0.242716 -4.980390 93.340300 -8.231350 -67.821700 -5.348130 -0.000001 -0.000004 -28.415900 -61.910700 -62.330500 -24.328900 0.000322 -0.000009 -7.954320 -6.163570 -52.457800 -22.291500 -0.000108 -0.000004 19.791700 5.562600 -9.318200 -2.192480 -6.469440 -0.000000 -174.765000 -12.289400 -2.500330 39.081100 -0.000007 -0.000012 -0.100930 0.292270 19.051500 40.985400 -0.000006 -0.000013 -0.762599 8.814290 -65.286900 11.754300 -0.000000 0.000003 -0.000304 -0.002631 -16.675500 -2.192510 6.469440 -0.000001 177.401000 27.174100 179.364000 -39.081100 -0.002282 -0.040193 0.006228 -0.008674 18.511600 -40.985400 0.000008 0.000006 6.797700 15.988200 -67.264800 -11.754300 -0.000006 -0.000006 -0.416145 -0.510646 -16.810500
0.000000 0.000000 0.000000 0.000000 0.000000 -0.000000 -1.783550 92.476600 1.981180 89.081300 0.999226 1.518780 15.735700 0.000005 -0.000001 77.991300 87.196900 -78.050100 8.984550 -0.406207 -0.000000 -2.283260 -1.160940 -0.140739 16.377300 -0.000001 -0.000001 1.815920 -2.692460 1.479120 6.456720 -0.000001 -0.000000 -3.172480 -2.448720 2.590960 12.994200 -0.242716 4.980390 -86.234000 -7.366610 -62.826100 5.348090 -0.000007 -0.000001 -34.650200 -56.371400 -63.191600 24.328600 0.000019 0.000005 3.374560 1.925580 -60.324600 22.291600 -0.000001 0.000005 14.847500 5.457970 -4.926910 12.994500 -0.242716 -4.980390 92.648500 -6.846060 -68.792100 -5.348130 -0.000001 -0.000004 -26.115800 -57.384300 -56.983500 -24.328900 0.000322 -0.000009 -7.925960 -5.635290 -54.800700 -22.291500 -0.000108 -0.000004 19.760000 5.548700 -8.645390 -2.192480 -6.469440 -0.000000 -174.788000 -12.476100 -2.387030 39.081100 -0.000007 -0.000012 -0.100099 0.285714 19.307700 40.985400 -0.000006 -0.000013 -0.672815 9.068710 -65.240400 11.754300 -0.000000 0.000003 -0.000303 -0.002620 -16.675100 -2.192510 6.469440 -0.000001 177.129000 27.345400 179.672000 -39.081100 -0.002282 -0.040193 0.005976 -0.007901 18.557600 -40.985400 0.000008 0.000006 6.791790 16.119900 -67.408900 -11.754300 -0.000006 -0.000006 -0.301711 -0.368893 -16.651200
0.000000 0.000000 0.000000 0.000000 0.000000 -0.000000 -1.773870 92.454800 1.734960 89.161700 1.002080 1.976010 15.735700 0.000005 -0.000001 78.573800 86.942100 -78.658100 8.984550 -0.406207 -0.000000 -1.772480 -1.204270 -0.187359 16.377300 -0.000001 -0.000001 1.350980 -2.583350 1.325280 6.456720 -0.000001 -0.000000 -3.228580 -2.323110 2.619320 12.994200 -0.242716 4.980390 -87.020100 -6.067640 -63.782300 5.348090 -0.000007 -0.000001 -31.317500 -50.816900 -55.495100 24.328600 0.000019 0.000005 3.473630 1.682060 -64.190800 22.291600 -0.000001 0.000005 14.644000 5.445410 -4.475390 12.994500 -0.242716 -4.980390 91.926500 -5.321110 -70.067600 -5.348130 -0.000001 -0.000004 -24.522300 -51.771800 -50.933600 -24.328900 0.000322 -0.000009 -8.225480 -5.171720 -58.048200 -22.291500 -0.000108 -0.000004 19.789300 5.541080 -8.291770 -2.192480 -6.469440 -0.000000 -174.772000 -12.728000 -2.246750 39.081100 -0.000007 -0.000012 -0.102016 0.286207 19.618100 40.985400 -0.000006 -0.000013 -0.580524 9.359870 -65.221400 11.754300 -0.000000 0.000003 -0.000303 -0.002624 -16.675300 -2.192510 6.469440 -0.000001 176.847000 27.490900 -179.974000 -39.081100 -0.002282 -0.040193 0.006148 -0.008381 18.619500 -40.985400 0.000008 0.000006 6.953640 16.265800 -67.663800 -11.754300 -0.000006 -0.000006 -0.171878 -0.207138 -16.459800
